PARTICIPANTS: use this file for creating the class diagram in mastery task 01

@startuml
class GetBookActivity{
- recommendationServiceClient : RecommendationServiceClient
- catalogDao : CatalogDao
 +execute(request : GetBookRequest) : GetBookResponse



}
class CatalogDao{
- dynamoDbMapper : DynamoDBMapper
+ getBookFromCatalog(bookId : String) : CatalogItemVersion
+ getLatestVersionOfBook(bookId : String) : CatalogItemVersion

}
class DynamoDBMapper{}

class PublishingStatusDao{
- dynamoDbMapper : DynamoDBMapper


}

class GetPublishingStatusActivity{
- publishingStatusDao : PublishingStatusDao

}

class RemoveBookFromCatalogActivity{
- catalogDao : CatalogDao
+ execute(removeBookFromCatalogRequest : RemoveBookFromCatalogRequest) : RemoveBookFromCatalogResponse

}

class SubmitBookForPublishingActivity{
- publishingStatusDao : PublishingStatusDao
+ execute(request : SubmitBookForPublishingRequest) : SubmitBookForPublishingResponse
}

class CatalogItemVersion {
   - @DynamoDBHashKey bookId : String
   - @DynamoDBRangeKey version : int
  -  inactive : boolean
   - title : String
   - author : String
    -text : String
    - genre : BookGenre

     {field} @DynamoDBHashKey
    + getBookId() : String

     {field} @DynamoDBRangeKey
    + getVersion() : int
   }

class PublishingStatusItem {
- @DynamoDBHashKey publishingRecordId : String

- @DynamoDBTypeConvertedEnum @DynamoDBRangeKey status : PublishingRecordStatus
- statusMessage : String
-  bookId : String

+ getPublishingRecordId() : String

+  getStatus() : PublishingRecordStatus

}

class RecommendationsService {}

class RecommendationsServiceClient {
-recommendationService : RecommendationService
+ getBookRecommendation(genre : BookGenre) : List<BookRecommendation>


}
class PublishingStatusNotFoundException {}

class BookNotFoundException {}
abstract RuntimeException


GetBookActivity o-- CatalogDao
GetBookActivity o-- RecommendationsServiceClient
DynamoDBMapper ... CatalogItemVersion

DynamoDBMapper ... PublishingStatusItem

RecommendationServiceClient o-- RecommendationService

PublishingStatusDao o-- DynamoDBMapper

GetPublishingStatusActivity o-- PublishingStatusDao

RemoveBookFromCatalogActivity o-- CatalogDao

SubmitBookForPublishingActivity o-- PublishingStatusDao

SubmitBookForPublishingActivity o-- CatalogDao

GetPublishingStatusActivity ..> PublishingStatusNotFoundException

RemoveBookFromCatalogActivity ..> BookNotFoundException

SubmitBookForPublishingActivity ..> BookNotFoundException

PublishingStatusNotFoundException <|-- RuntimeException

BookNotFoundException <|-- RuntimeException

CatalogItemVersion .. CatalogDao

PublishingStatusItem .. PublishingStatusDao

CatalogDao ..> BookNotFoundException
@enduml
